# xmcd
#
# Track frame offsets: 
#        150
#        16772
#        31813
#        53442
#        69023
#        90850
#        121641
#        137640
#        160258
#        182043
#        198882
#
# Disc length: 2876 seconds
#
# Revision: 0
# Processed by: cddbd v1.5.2PL0 Copyright (c) Steve Scherf et al.
# Submitted via: ExactAudioCopy v1.2
#
DISCID=710b3a0b
DTITLE=Michael Bloom and the Blues Prophecy - Whisper in the Wind
DYEAR=2019
DGENRE=Blues
TTITLE0=Time on My Hands
TTITLE1=Whisper in the Wind
TTITLE2=Just Can't Win
TTITLE3=I Remember Love
TTITLE4=Brownsville
TTITLE5=Old Man Blues
TTITLE6=Till I Met You
TTITLE7=No Luck at All
TTITLE8=Lisa
TTITLE9=I Ain't Got the Blues
TTITLE10=Dust My Broom
EXTD=
EXTT0=
EXTT1=
EXTT2=
EXTT3=
EXTT4=
EXTT5=
EXTT6=
EXTT7=
EXTT8=
EXTT9=
EXTT10=
PLAYORDER=
